<svg width="46" height="46" viewBox="0 0 46 46" fill="none" xmlns="http://www.w3.org/2000/svg">
<g clip-path="url(#clip0_44_287)">
<path d="M23.0111 0.348633C13.5528 0.348633 10.7866 0.35839 10.2489 0.402996C8.30794 0.564345 7.10013 0.869966 5.78429 1.52512C4.77023 2.02868 3.97048 2.61239 3.18119 3.43063C1.74373 4.92285 0.872545 6.75866 0.557175 8.94088C0.403847 10.0003 0.359242 10.2163 0.350182 15.6276C0.346697 17.4314 0.350182 19.8052 0.350182 22.9893C0.350182 32.4403 0.360636 35.2037 0.405937 35.7404C0.562751 37.6292 0.858954 38.8175 1.48621 40.1174C2.68496 42.6056 4.97444 44.4734 7.67163 45.1704C8.60554 45.4109 9.63702 45.5433 10.9612 45.606C11.5223 45.6304 17.2407 45.6478 22.9627 45.6478C28.6846 45.6478 34.4066 45.6409 34.9537 45.613C36.487 45.5409 37.3773 45.4213 38.3618 45.1669C41.0764 44.4665 43.324 42.6265 44.5472 40.1034C45.1622 38.835 45.4741 37.6013 45.6152 35.8111C45.6459 35.4208 45.6588 29.198 45.6588 22.9834C45.6588 16.7678 45.6449 10.5565 45.6142 10.1661C45.4713 8.34706 45.1594 7.12388 44.5245 5.831C44.0036 4.77265 43.4251 3.98228 42.5853 3.17415C41.0865 1.74257 39.2535 0.87136 37.0693 0.55633C36.0109 0.403345 35.8001 0.358042 30.3848 0.348633H23.0111Z" fill="url(#paint0_radial_44_287)"/>
<path d="M23.0111 0.348633C13.5528 0.348633 10.7866 0.35839 10.2489 0.402996C8.30794 0.564345 7.10013 0.869966 5.78429 1.52512C4.77023 2.02868 3.97048 2.61239 3.18119 3.43063C1.74373 4.92285 0.872545 6.75866 0.557175 8.94088C0.403847 10.0003 0.359242 10.2163 0.350182 15.6276C0.346697 17.4314 0.350182 19.8052 0.350182 22.9893C0.350182 32.4403 0.360636 35.2037 0.405937 35.7404C0.562751 37.6292 0.858954 38.8175 1.48621 40.1174C2.68496 42.6056 4.97444 44.4734 7.67163 45.1704C8.60554 45.4109 9.63702 45.5433 10.9612 45.606C11.5223 45.6304 17.2407 45.6478 22.9627 45.6478C28.6846 45.6478 34.4066 45.6409 34.9537 45.613C36.487 45.5409 37.3773 45.4213 38.3618 45.1669C41.0764 44.4665 43.324 42.6265 44.5472 40.1034C45.1622 38.835 45.4741 37.6013 45.6152 35.8111C45.6459 35.4208 45.6588 29.198 45.6588 22.9834C45.6588 16.7678 45.6449 10.5565 45.6142 10.1661C45.4713 8.34706 45.1594 7.12388 44.5245 5.831C44.0036 4.77265 43.4251 3.98228 42.5853 3.17415C41.0865 1.74257 39.2535 0.87136 37.0693 0.55633C36.0109 0.403345 35.8001 0.358042 30.3848 0.348633H23.0111Z" fill="url(#paint1_radial_44_287)"/>
<path d="M23.0006 6.27295C18.4579 6.27295 17.8878 6.29281 16.1036 6.37401C14.3229 6.45556 13.1074 6.73748 12.0439 7.15113C10.9438 7.57837 10.0105 8.14989 9.08082 9.07999C8.15039 10.0098 7.57889 10.943 7.15027 12.0428C6.73558 13.1067 6.45332 14.3226 6.37317 16.1027C6.29337 17.8869 6.27246 18.4574 6.27246 23.0002C6.27246 27.5431 6.29267 28.1115 6.37352 29.8957C6.45541 31.6765 6.73733 32.892 7.15062 33.9555C7.57819 35.0557 8.14969 35.9889 9.07977 36.9187C10.0092 37.8492 10.9424 38.4221 12.0418 38.8493C13.106 39.263 14.3219 39.5449 16.1022 39.6264C17.8864 39.7076 18.4562 39.7275 22.9985 39.7275C27.5416 39.7275 28.11 39.7076 29.8941 39.6264C31.6748 39.5449 32.8917 39.263 33.956 38.8493C35.0557 38.4221 35.9876 37.8492 36.9169 36.9187C37.8474 35.9889 38.4189 35.0557 38.8475 33.9559C39.2587 32.892 39.541 31.6761 39.6246 29.896C39.7047 28.1118 39.7256 27.5431 39.7256 23.0002C39.7256 18.4574 39.7047 17.8873 39.6246 16.103C39.541 14.3223 39.2587 13.1067 38.8475 12.0432C38.4189 10.943 37.8474 10.0098 36.9169 9.07999C35.9865 8.14954 35.0561 7.57803 33.9549 7.15113C32.8886 6.73748 31.6724 6.45556 29.8917 6.37401C28.1075 6.29281 27.5395 6.27295 22.9954 6.27295H23.0006ZM21.5001 9.28734C21.9454 9.28665 22.4424 9.28734 23.0006 9.28734C27.4667 9.28734 27.996 9.30337 29.7596 9.38353C31.3905 9.4581 32.2756 9.73062 32.8652 9.95957C33.6458 10.2628 34.2023 10.6252 34.7874 11.2106C35.3729 11.7961 35.7353 12.3537 36.0391 13.1343C36.2681 13.7232 36.5409 14.6084 36.6152 16.2393C36.6953 18.0026 36.7127 18.5323 36.7127 22.9964C36.7127 27.4605 36.6953 27.9902 36.6152 29.7535C36.5406 31.3844 36.2681 32.2696 36.0391 32.8585C35.736 33.6391 35.3729 34.195 34.7874 34.7801C34.202 35.3655 33.6462 35.7279 32.8652 36.0311C32.2763 36.2611 31.3905 36.5329 29.7596 36.6075C27.9964 36.6877 27.4667 36.7051 23.0006 36.7051C18.5342 36.7051 18.0049 36.6877 16.2416 36.6075C14.6108 36.5322 13.7256 36.2597 13.1357 36.0308C12.3551 35.7276 11.7975 35.3652 11.2121 34.7797C10.6266 34.1943 10.2642 33.6381 9.96036 32.8571C9.73142 32.2682 9.45856 31.383 9.38434 29.7521C9.30419 27.9888 9.28816 27.4591 9.28816 22.9922C9.28816 18.5253 9.30419 17.9984 9.38434 16.2351C9.45891 14.6042 9.73142 13.719 9.96036 13.1294C10.2635 12.3488 10.6266 11.7912 11.2121 11.2058C11.7975 10.6203 12.3551 10.2579 13.1357 9.95399C13.7253 9.72399 14.6108 9.45218 16.2416 9.37725C17.7847 9.30756 18.3826 9.28665 21.5001 9.28316V9.28734ZM31.9292 12.0648C30.8211 12.0648 29.922 12.9628 29.922 14.0713C29.922 15.1795 30.8211 16.0786 31.9292 16.0786C33.0374 16.0786 33.9364 15.1795 33.9364 14.0713C33.9364 12.9632 33.0374 12.0641 31.9292 12.0641V12.0648ZM23.0006 14.4101C18.2568 14.4101 14.4107 18.2563 14.4107 23.0002C14.4107 27.7441 18.2568 31.5886 23.0006 31.5886C27.7444 31.5886 31.5891 27.7441 31.5891 23.0002C31.5891 18.2563 27.7444 14.4101 23.0006 14.4101ZM23.0006 17.4245C26.0797 17.4245 28.5762 19.9207 28.5762 23.0002C28.5762 26.0794 26.0797 28.576 23.0006 28.576C19.9212 28.576 17.425 26.0794 17.425 23.0002C17.425 19.9207 19.9212 17.4245 23.0006 17.4245Z" fill="white"/>
</g>
<defs>
<radialGradient id="paint0_radial_44_287" cx="0" cy="0" r="1" gradientUnits="userSpaceOnUse" gradientTransform="translate(12.3842 49.1368) rotate(-90) scale(44.8949 41.7659)">
<stop stop-color="#FFDD55"/>
<stop offset="0.1" stop-color="#FFDD55"/>
<stop offset="0.5" stop-color="#FF543E"/>
<stop offset="1" stop-color="#C837AB"/>
</radialGradient>
<radialGradient id="paint1_radial_44_287" cx="0" cy="0" r="1" gradientUnits="userSpaceOnUse" gradientTransform="translate(-7.24106 3.61191) rotate(78.678) scale(20.0684 82.7412)">
<stop stop-color="#3771C8"/>
<stop offset="0.128" stop-color="#3771C8"/>
<stop offset="1" stop-color="#6600FF" stop-opacity="0"/>
</radialGradient>
<clipPath id="clip0_44_287">
<rect width="46" height="46" fill="white"/>
</clipPath>
</defs>
</svg>
