<svg width="44" height="44" viewBox="0 0 44 44" fill="none" xmlns="http://www.w3.org/2000/svg">
<g clip-path="url(#clip0_44_277)">
<path d="M21.9999 -0.0800781C34.1948 -0.0800781 44.0799 9.80504 44.0799 21.9999C44.0799 34.1948 34.1948 44.0799 21.9999 44.0799C9.80504 44.0799 -0.0800781 34.1948 -0.0800781 21.9999C-0.0800781 9.80504 9.80504 -0.0800781 21.9999 -0.0800781ZM29.6166 30.9999C30.0226 29.7538 31.9254 17.3353 32.1606 14.8882C32.2316 14.1471 31.9974 13.6546 31.5385 13.4348C30.9836 13.1679 30.1618 13.3014 29.2086 13.645C27.901 14.1164 11.1855 21.2137 10.2198 21.6246C9.30392 22.0134 8.438 22.4377 8.438 23.0521C8.438 23.4841 8.69432 23.727 9.40088 23.9794C10.1362 24.2415 11.9881 24.8031 13.0815 25.1046C14.1346 25.3954 15.3337 25.143 16.0057 24.7254C16.718 24.2828 24.9385 18.782 25.5289 18.3001C26.1183 17.8182 26.5887 18.4354 26.1068 18.9183C25.6249 19.4002 19.982 24.877 19.238 25.6354C18.3346 26.5561 18.9759 27.5103 19.5817 27.8924C20.2738 28.3282 25.2514 31.6671 26.0012 32.2028C26.751 32.7385 27.5113 32.9814 28.2073 32.9814C28.9033 32.9814 29.27 32.0646 29.6166 30.9999Z" fill="#1AD1D1"/>
</g>
<defs>
<clipPath id="clip0_44_277">
<rect width="44" height="44" fill="white"/>
</clipPath>
</defs>
</svg>
