<svg width="46" height="46" viewBox="0 0 46 46" fill="none" xmlns="http://www.w3.org/2000/svg">
<g clip-path="url(#clip0_1412_18)">
<path d="M22.9998 -0.333496C16.8115 -0.333496 10.8765 2.12483 6.50068 6.50068C2.12483 10.8765 -0.333496 16.8115 -0.333496 22.9998C-0.333496 29.1882 2.12483 35.1231 6.50068 39.499C10.8765 43.8748 16.8115 46.3332 22.9998 46.3332C29.1882 46.3332 35.1231 43.8748 39.499 39.499C43.8748 35.1231 46.3332 29.1882 46.3332 22.9998C46.3332 16.8115 43.8748 10.8765 39.499 6.50068C35.1231 2.12483 29.1882 -0.333496 22.9998 -0.333496Z" fill="#1976D2"/>
<path d="M36.9265 16.048C36.9802 15.8718 37.0058 15.7085 36.9988 15.5627C36.9813 15.1403 36.6908 14.8335 36.0072 14.8335H32.9528C32.1817 14.8335 31.8258 15.3002 31.6182 15.768C31.6182 15.768 29.7142 19.6868 27.5197 22.271C26.808 23.0188 26.4463 23.0002 26.0613 23.0002C25.8548 23.0002 25.3333 22.7505 25.3333 22.0657V16.0165C25.3333 15.2068 25.1315 14.8335 24.4793 14.8335H19.0555C18.5807 14.8335 18.3333 15.2068 18.3333 15.5813C18.3333 16.3595 19.381 16.5462 19.5 18.7267V22.9535C19.5 23.9802 19.3215 24.1668 18.9365 24.1668C17.8982 24.1668 15.8542 20.6668 14.4857 16.0795C14.1893 15.1765 13.893 14.8335 13.1218 14.8335H10.0383C9.14817 14.8335 9 15.2698 9 15.7365C9 16.5777 9.7 21.1253 13.5208 26.3543C16.2917 30.146 19.9422 32.3335 23.1738 32.3335C25.1315 32.3335 25.3322 31.8353 25.3322 31.0572V27.5898C25.3333 26.6553 25.5468 26.5002 26.1698 26.5002C26.6143 26.5002 27.5208 26.7918 29.2708 28.8335C31.2892 31.1878 31.6555 32.3335 32.8128 32.3335H35.8672C36.5765 32.3335 36.9837 32.036 37 31.4585C37.0035 31.3115 36.9825 31.147 36.9347 30.9638C36.7083 30.2918 35.67 28.6492 34.375 27.0835C33.6575 26.2167 32.9493 25.358 32.6238 24.8913C32.4057 24.5868 32.3228 24.3722 32.3333 24.1668C32.3438 23.951 32.4558 23.7457 32.6238 23.4587C32.5935 23.4587 36.5415 17.9158 36.9265 16.048Z" fill="white"/>
</g>
<defs>
<clipPath id="clip0_1412_18">
<rect width="46" height="46" fill="white"/>
</clipPath>
</defs>
</svg>
