<svg width="42" height="43" viewBox="0 0 42 43" fill="none" xmlns="http://www.w3.org/2000/svg">
<g clip-path="url(#clip0_44_274)">
<path d="M20.9887 0.0117291C9.39762 0.0142471 0.00313167 9.63652 0.00559116 21.5036C0.00641098 25.6128 1.15819 29.6356 3.32417 33.095L0.0588799 41.7687C-0.115005 42.23 0.109299 42.7483 0.559876 42.9264C0.660633 42.9662 0.767621 42.9866 0.875592 42.9864C0.975775 42.9869 1.07522 42.9693 1.16942 42.9344L9.91427 39.7382C19.7532 46.0119 32.6968 42.9317 38.8245 32.8585C44.9522 22.7852 41.9438 9.53353 32.1048 3.25992C28.7696 1.13318 24.9181 0.00778415 20.9887 0.0117291Z" fill="#4ED754"/>
<path d="M30.9945 25.171C30.9945 25.171 28.852 24.0966 27.5105 23.3804C25.9924 22.58 24.2085 24.0788 23.369 24.9311C22.0624 24.4173 20.8691 23.6417 19.8588 22.6499C18.8899 21.6157 18.1323 20.3939 17.6306 19.0561C18.4631 18.1949 19.9235 16.3702 19.1452 14.816C18.4544 13.4408 17.3963 11.2491 17.3963 11.2473C17.2478 10.9457 16.9462 10.7552 16.6162 10.7549H14.8673C12.3203 11.2053 10.4683 13.4806 10.4949 16.1267C10.4949 18.9379 13.7812 24.3385 15.9972 26.6089C18.2132 28.8793 23.488 32.2422 26.2356 32.2422C28.8202 32.2694 31.0426 30.3733 31.4825 27.7657V25.9751C31.4827 25.6337 31.2935 25.3218 30.9945 25.171Z" fill="#212121"/>
</g>
<defs>
<clipPath id="clip0_44_274">
<rect width="42" height="43" fill="white"/>
</clipPath>
</defs>
</svg>
