<svg width="34" height="34" viewBox="0 0 34 34" fill="none" xmlns="http://www.w3.org/2000/svg">
<path d="M17.0002 2.83331C13.2429 2.83331 9.63958 4.32587 6.98282 6.98263C4.32605 9.6394 2.8335 13.2427 2.8335 17C2.8335 20.7572 4.32605 24.3606 6.98282 27.0173C9.63958 29.6741 13.2429 31.1666 17.0002 31.1666C20.7574 31.1666 24.3607 29.6741 27.0175 27.0173C29.6743 24.3606 31.1668 20.7572 31.1668 17C31.1668 13.2427 29.6743 9.6394 27.0175 6.98263C24.3607 4.32587 20.7574 2.83331 17.0002 2.83331Z" fill="#1976D2"/>
<path d="M25.4554 12.7791C25.488 12.6721 25.5035 12.5729 25.4993 12.4844C25.4887 12.228 25.3123 12.0417 24.8972 12.0417H23.0428C22.5746 12.0417 22.3585 12.325 22.2325 12.6091C22.2325 12.6091 21.0765 14.9884 19.7441 16.5573C19.312 17.0114 19.0924 17 18.8587 17C18.7333 17 18.4167 16.8484 18.4167 16.4326V12.7599C18.4167 12.2684 18.2941 12.0417 17.8982 12.0417H14.6051C14.3168 12.0417 14.1667 12.2684 14.1667 12.4957C14.1667 12.9682 14.8027 13.0815 14.875 14.4054V16.9717C14.875 17.595 14.7666 17.7084 14.5329 17.7084C13.9025 17.7084 12.6615 15.5834 11.8306 12.7982C11.6507 12.2499 11.4707 12.0417 11.0025 12.0417H9.13042C8.58996 12.0417 8.5 12.3066 8.5 12.5899C8.5 13.1006 8.925 15.8617 11.2448 19.0365C12.9271 21.3386 15.1435 22.6667 17.1055 22.6667C18.2941 22.6667 18.416 22.3642 18.416 21.8918V19.7866C18.4167 19.2192 18.5463 19.125 18.9245 19.125C19.1944 19.125 19.7448 19.3021 20.8073 20.5417C22.0327 21.9711 22.2551 22.6667 22.9578 22.6667H24.8122C25.2429 22.6667 25.4901 22.4861 25.5 22.1354C25.5021 22.0462 25.4894 21.9463 25.4603 21.8351C25.3229 21.4271 24.6925 20.4298 23.9062 19.4792C23.4706 18.9529 23.0407 18.4316 22.843 18.1482C22.7106 17.9634 22.6603 17.833 22.6667 17.7084C22.673 17.5773 22.741 17.4526 22.843 17.2784C22.8246 17.2784 25.2216 13.9131 25.4554 12.7791Z" fill="white"/>
</svg>
