<svg width="27" height="27" viewBox="0 0 27 27" fill="none" xmlns="http://www.w3.org/2000/svg">
<g clip-path="url(#clip0_44_68)">
<path d="M13.4928 0.00745278C6.04132 0.00903387 0.00201322 6.05093 0.00359431 13.5024C0.00412135 16.0826 0.744548 18.6085 2.13697 20.7807L0.0378514 26.227C-0.0739321 26.5166 0.0702639 26.8421 0.359921 26.9539C0.424693 26.9788 0.49347 26.9916 0.56288 26.9915C0.627284 26.9919 0.691213 26.9808 0.751769 26.9589L6.37346 24.952C12.6985 28.8913 21.0194 26.9572 24.9586 20.6322C28.8979 14.3071 26.9639 5.98626 20.6388 2.04701C18.4947 0.71162 16.0188 0.00497573 13.4928 0.00745278Z" fill="#4ED754"/>
<path d="M19.925 15.8051C19.925 15.8051 18.5477 15.1305 17.6854 14.6808C16.7095 14.1782 15.5626 15.1193 15.023 15.6545C14.183 15.3318 13.4159 14.8448 12.7664 14.222C12.1435 13.5727 11.6565 12.8055 11.334 11.9655C11.8692 11.4247 12.808 10.279 12.3077 9.3031C11.8636 8.43961 11.1834 7.06343 11.1834 7.06232C11.0879 6.87291 10.894 6.75332 10.6819 6.75311H9.55758C7.9202 7.03592 6.72969 8.4646 6.74676 10.1261C6.74676 11.8913 8.85937 15.2823 10.2839 16.708C11.7085 18.1336 15.0995 20.2451 16.8658 20.2451C18.5273 20.2622 19.956 19.0716 20.2388 17.4343V16.31C20.2389 16.0956 20.1173 15.8998 19.925 15.8051Z" fill="#FAFAFA"/>
</g>
<defs>
<clipPath id="clip0_44_68">
<rect width="27" height="27" fill="white"/>
</clipPath>
</defs>
</svg>
